#!OML:ASF F:\VICON\USERDATA\INSTALL\Justin_Nancy\Justin_Nancy.ASF
:FULLY-SPECIFIED
:DEGREES
17
root 15.8241 17.6271 -20.4795 -0.0524527 -10.641 4.03303
lowerback 7.87923 -0.174436 -3.71894
upperback -0.112177 -0.511683 1.41586
thorax -4.496 -0.154178 3.62855
lowerneck -23.0633 -4.43953 -9.2734
upperneck 14.1054 -5.2345 10.9394
head 8.73298 -1.81983 4.53728
rclavicle 1.77415e-014 -1.27222e-014
rhumerus -54.9771 15.5205 -99.8465
rradius 112.856
rwrist -16.1383
rhand -6.63067 16.5679
rfingers 7.12502
rthumb 19.226 -12.5017
lclavicle 1.77415e-014 -1.27222e-014
lhumerus -49.843 -2.87737 87.6489
lradius 104.867
lwrist 18.4929
lhand -13.8007 13.4712
lfingers 7.12502
lthumb 12.3212 43.0882
rfemur -29.7826 -1.94149 23.3849
rtibia 50.6885
rfoot -10.816 -2.70657
rtoes -15.518
lfemur 1.67164 1.81056 -27.2099
ltibia 36.7027
lfoot -1.79487 -1.1802
ltoes -28.4617
18
root 15.8027 17.7108 -20.1118 0.0411401 -11.0336 4.26921
lowerback 7.45472 -0.213479 -3.86157
upperback 0.130181 -0.557278 1.45671
thorax -3.99865 -0.18948 3.74849
lowerneck -24.8813 -4.53753 -9.35259
upperneck 15.3105 -5.2488 10.7688
head 9.4558 -1.78833 4.51348
rclavicle 3.1408e-014 7.15625e-015
rhumerus -54.7701 15.4715 -99.5232
rradius 112.894
rwrist -15.6291
rhand -6.54366 15.9216
rfingers 7.12502
rthumb 19.3097 -13.1397
lclavicle 3.1408e-014 7.15625e-015
lhumerus -49.2569 -2.68066 87.6208
lradius 104.839
lwrist 18.7466
lhand -13.5492 13.4422
lfingers 7.12502
lthumb 12.5637 43.0445
rfemur -29.54 -2.05863 23.7512
rtibia 46.5961
rfoot -10.3239 -2.27026
rtoes -17.1302
lfemur 2.84009 1.69392 -27.2616
ltibia 35.4801
lfoot 1.33322 -2.15696
ltoes -31.5913
19
root 15.7855 17.7711 -19.7403 0.191274 -11.4902 4.51686
lowerback 7.0071 -0.222801 -4.13792
upperback -0.645372 -0.580577 1.53396
thorax -4.55103 -0.165845 3.99029
lowerneck -22.3429 -4.26779 -9.69397
upperneck 15.194 -4.97827 10.7759
head 8.95676 -1.75572 4.60953
rclavicle 2.51463e-014 -1.59028e-015
rhumerus -56.8073 14.9473 -99.6101
rradius 113.106
rwrist -14.9108
rhand -5.89667 15.5641
rfingers 7.12502
rthumb 19.9317 -13.4337
lclavicle 2.51463e-014 -1.59028e-015
lhumerus -50.9908 -2.58855 87.7626
lradius 105.205
lwrist 19.1796
lhand -13.2001 13.1767
lfingers 7.12502
lthumb 12.9003 42.7579
rfemur -29.3579 -1.9917 24.1137
rtibia 42.5286
rfoot -9.36376 -1.82746
rtoes -19.5152
lfemur 3.75802 1.44788 -27.3462
ltibia 34.2239
lfoot 5.41484 -3.62394
ltoes -30.9422
20
root 15.7735 17.8327 -19.3672 0.45927 -11.1674 4.78575
lowerback 6.46138 -0.370035 -4.10153
upperback -0.993391 -0.759741 1.4576
thorax -4.58968 -0.249112 3.90337
lowerneck -21.7964 -4.3002 -9.9472
upperneck 15.4688 -5.05196 10.9505
head 8.97659 -1.80159 4.70908
rclavicle 1.25731e-014 -1.03368e-014
rhumerus -57.8036 14.1594 -99.443
rradius 113.331
rwrist -14.3421
rhand -6.80045 17.4838
rfingers 7.12502
rthumb 19.0627 -11.602
lclavicle 1.25731e-014 -1.03368e-014
lhumerus -51.5525 -2.91026 87.8821
lradius 105.425
lwrist 19.5857
lhand -12.5044 12.8448
lfingers 7.12502
lthumb 13.5709 42.3825
rfemur -29.1595 -2.39912 24.3675
rtibia 38.3806
rfoot -7.91372 -1.31881
rtoes -20.8109
lfemur 4.62556 0.363477 -27.4352
ltibia 33.0437
lfoot 9.51377 -4.57049
ltoes -26.8513
21
root 15.7588 17.8907 -19.0009 0.691366 -10.8139 5.02361
lowerback 5.95546 -0.556131 -4.02777
upperback -1.11997 -0.988271 1.35941
thorax -4.41568 -0.367952 3.77316
lowerneck -21.9221 -4.28394 -9.84793
upperneck 15.7474 -5.04083 10.8059
head 9.08542 -1.80077 4.64867
rclavicle -1.66979e-014 -7.15625e-015
rhumerus -58.1702 13.563 -99.3183
rradius 113.453
rwrist -13.9461
rhand -6.84357 18.0926
rfingers 7.12502
rthumb 19.0213 -10.9973
lclavicle -1.66979e-014 -7.15625e-015
lhumerus -51.6296 -3.18925 87.8763
lradius 105.636
lwrist 19.9191
lhand -12.4394 12.7345
lfingers 7.12502
lthumb 13.6335 42.268
rfemur -28.8359 -2.70915 24.5549
rtibia 34.2829
rfoot -5.94408 -0.567575
rtoes -20.2505
lfemur 5.50456 -0.679943 -27.455
ltibia 32.2025
lfoot 12.2655 -6.40916
ltoes -24.8327
